<svg xmlns="http://www.w3.org/2000/svg" viewBox="0 0 725 242"><g><path fill="#000000" d="M0 242h725V0H0z"/><path fill="#FFFFFE" d="M94.342 99.558c0 7.959-2.374 14.286-7.113 18.985-4.743 4.699-11.15 7.048-19.228 7.048-3.579 0-7.857-.633-12.838-1.894-4.541-1.18-8.26-1.773-11.152-1.773a291.185 291.185 0 00-1.446-20.397c0-.641.618-.961 1.851-.961.863 0 1.395.32 1.601.954 2.157 7.409 4.911 12.624 8.269 15.651 3.357 3.027 8.086 4.538 14.188 4.538 4.857 0 8.622-1.396 11.292-4.194 2.669-2.795 4.005-6.708 4.005-11.744 0-3.233-1.166-6.236-3.493-9.014-2.326-2.777-7.281-6.36-14.861-10.756-8.711-4.996-14.408-9.236-17.094-12.715-2.69-3.479-4.032-7.339-4.032-11.579 0-6.516 2.42-12.023 7.261-16.523 4.84-4.497 10.979-6.749 18.415-6.749 2.811 0 6.044.381 9.701 1.139 3.415.681 6.368 1.018 8.862 1.018.479 7.066 1.122 13.288 1.928 18.668 0 .644-.526.964-1.574.964-1.133 0-1.756-.32-1.878-.961-1.324-6.007-3.33-10.335-6.016-12.977-2.69-2.643-6.412-3.968-11.165-3.968-4.513 0-8.1 1.318-10.76 3.954-2.659 2.636-3.987 6.192-3.987 10.662 0 2.839 1.116 5.545 3.347 8.12 2.232 2.576 7.065 6.021 14.505 10.332 8.804 5.12 14.575 9.398 17.309 12.836 2.734 3.439 4.103 7.217 4.103 11.336m89.836-39.62c0 .768-.722 1.149-2.164 1.149-.64 0-1.042-.28-1.201-.843-1.725-5.666-4.196-9.674-7.405-12.027-3.209-2.35-7.966-3.526-14.265-3.526h-5.661c-1.967 0-3.313.324-4.034.964-.721.64-1.082 1.844-1.082 3.604v60.998c0 2.765.347 4.72 1.049 5.859.7 1.143 1.941 2.046 3.724 2.707 1.783.66 4.339 1.193 7.662 1.591.64.081.961.61.961 1.587 0 1.1-.321 1.649-.961 1.649-2.683 0-5.889-.108-9.614-.324-3.546-.216-6.516-.323-8.909-.323-2.477 0-5.508.107-9.091.323-3.728.216-6.93.324-9.614.324-.64 0-.96-.549-.96-1.649 0-.977.32-1.506.96-1.587 4.844-.56 8.138-1.463 9.881-2.704 1.742-1.24 2.615-3.725 2.615-7.453V49.259c0-1.76-.361-2.964-1.079-3.604-.72-.64-2.079-.964-4.078-.964h-4.676c-5.635 0-10.753 1.439-15.347 4.312-4.598 2.871-7.595 6.6-8.994 11.181-.202.603-.64.903-1.321.903-1.362 0-2.042-.441-2.042-1.332 2.278-6.084 4.435-12.974 6.471-20.673 5.448 1.153 17.9 1.726 37.363 1.726 19.982 0 32.697-.573 38.144-1.726.57 5.238 1.794 12.193 3.668 20.856m76.815 43.915c-3.244 6.92-5.886 13.521-7.925 19.797-15.088-.432-25.835-.647-32.239-.647-6.324 0-17.053.215-32.188.647-.641 0-.961-.549-.961-1.649 0-.977.32-1.506.961-1.587 3.324-.401 5.865-.934 7.628-1.595 1.763-.66 2.997-1.553 3.698-2.676.701-1.122 1.052-3.088 1.052-5.899v-56.62c0-2.764-.331-4.719-.991-5.866-.661-1.142-1.875-2.056-3.637-2.736-1.764-.682-4.346-1.224-7.75-1.625-.641 0-.961-.539-.961-1.618 0-1.079.32-1.618.961-1.618 10.092.431 20.427.647 31.005.647 10.651 0 21.007-.216 31.066-.647a135.494 135.494 0 004.025 18.226c0 .795-.722 1.19-2.158 1.19-.701 0-1.133-.277-1.294-.833-2.957-9.367-9.264-14.053-18.924-14.053h-12.098c-4.632 0-6.947 2.4-6.947 7.193v26.678h15.145c4.024 0 6.755-.924 8.184-2.778 1.429-1.854 2.423-5.134 2.99-9.846 0-.644.539-.968 1.618-.968 1.079 0 1.618.324 1.618.968 0 2.015-.108 4.55-.324 7.611-.215 2.939-.323 5.336-.323 7.187 0 1.894.108 4.311.323 7.25.216 3.142.324 5.717.324 7.729 0 .648-.539.968-1.618.968-1.079 0-1.618-.32-1.618-.964-.607-4.908-1.662-8.346-3.172-10.318-1.51-1.969-4.18-2.956-8.002-2.956h-15.145v29.578c0 4.733 2.315 7.097 6.953 7.097h13.072c4.757 0 9.473-1.551 14.151-4.656 4.679-3.104 8.118-6.981 10.315-11.632.158-.358.499-.54 1.021-.54.56 0 1.063.152 1.504.452.438.299.661.671.661 1.109m59.68-39.264c0-6.445-1.573-11.478-4.716-15.105-3.141-3.626-7.314-5.44-12.519-5.44-3.121 0-5.534.243-7.233.725-1.703.485-2.903 1.271-3.604 2.356-.701 1.089-1.051 3.246-1.051 6.469v27.735c0 1.732.538 2.892 1.621 3.475 1.078.587 3.421.876 7.025.876 6.526 0 11.569-1.87 15.131-5.619 3.563-3.748 5.346-8.905 5.346-15.472zm13.16.064c0 7.045-2.703 12.958-8.104 17.737-5.403 4.784-12.09 7.174-20.066 7.174-4.787 0-9.489-.199-14.113-.6v21.287c0 2.808.35 4.773 1.051 5.895.701 1.123 1.921 2.016 3.664 2.677 1.739.66 4.295 1.193 7.662 1.591.641.081.961.61.961 1.587 0 1.1-.32 1.649-.961 1.649-2.686 0-5.872-.108-9.553-.324-3.532-.216-6.522-.323-8.973-.323-2.454 0-5.464.107-9.034.323-3.725.216-6.931.324-9.614.324-.64 0-.961-.549-.961-1.649 0-.977.321-1.506.961-1.587 4.848-.56 8.141-1.463 9.884-2.707 1.742-1.244 2.615-3.732 2.615-7.463v-56.62c0-2.805-.35-4.78-1.051-5.923-.702-1.143-1.935-2.046-3.698-2.71-1.763-.66-4.345-1.193-7.75-1.594-.64 0-.961-.539-.961-1.618 0-1.079.321-1.618.961-1.618 2.683 0 5.889.108 9.614.323 3.559.216 6.56.324 8.997.324 2.433 0 5.41-.108 8.926-.324 3.674-.215 6.849-.323 9.526-.323 9.826 0 17.286 2.083 22.379 6.243 5.09 4.163 7.638 10.247 7.638 18.249zm104.434 57.348c0 1.1-.32 1.649-.961 1.649-2.724 0-5.949-.108-9.674-.324-3.526-.216-6.509-.323-8.953-.323-2.447 0-5.272.107-8.474.323-3.368.216-6.395.324-9.079.324-.64 0-.96-.549-.96-1.649 0-.977.337-1.506 1.018-1.587 3.357-.401 5.856-.954 7.494-1.656 1.638-.7 2.686-1.621 3.145-2.767.458-1.143.69-3.057.69-5.747v-26.72h-45.735v26.72c0 2.69.229 4.604.687 5.747.459 1.146 1.511 2.067 3.15 2.767 1.637.702 4.152 1.255 7.55 1.656.64.081.96.61.96 1.587 0 1.1-.32 1.649-.96 1.649-2.687 0-5.714-.108-9.078-.324-3.206-.216-6.03-.323-8.474-.323-2.448 0-5.451.107-9.017.323-3.725.216-6.931.324-9.614.324-.64 0-.961-.549-.961-1.649 0-.977.321-1.506.961-1.587 4.847-.56 8.141-1.463 9.884-2.707 1.742-1.244 2.615-3.732 2.615-7.463V53.627c0-2.808-.35-4.783-1.051-5.926-.702-1.143-1.935-2.046-3.698-2.707-1.763-.66-4.345-1.193-7.75-1.597-.64 0-.961-.539-.961-1.618 0-1.079.321-1.618.961-1.618 2.683 0 5.889.108 9.614.323 3.566.216 6.569.324 9.017.324 2.444 0 5.268-.108 8.474-.324 3.364-.215 6.391-.323 9.078-.323.64 0 .96.539.96 1.618 0 1.079-.32 1.618-.96 1.618-3.116.364-5.474.846-7.073 1.446-1.597.599-2.717 1.412-3.357 2.437-.641 1.024-.957 3.138-.957 6.347V79.64h45.735V53.627c0-2.686-.232-4.611-.69-5.778-.459-1.162-1.496-2.096-3.116-2.797-1.617-.701-4.146-1.251-7.581-1.655-.64 0-.96-.539-.96-1.618 0-1.079.32-1.618.96-1.618 2.684 0 5.711.108 9.079.323 3.202.216 6.027.324 8.474.324 2.444 0 5.427-.108 8.953-.324 3.725-.215 6.95-.323 9.674-.323.641 0 .961.539.961 1.618 0 1.079-.32 1.618-.961 1.618-3.404.404-5.989.937-7.753 1.597-1.763.661-2.993 1.564-3.694 2.707-.701 1.143-1.049 3.118-1.049 5.926v56.617c0 3.731.87 6.219 2.613 7.463 1.74 1.244 5.035 2.147 9.883 2.707.641.081.961.61.961 1.587m80.26-18.148c-3.242 6.92-5.886 13.521-7.929 19.797-15.088-.432-25.834-.647-32.239-.647-6.323 0-17.049.215-32.185.647-.64 0-.96-.549-.96-1.649 0-.977.32-1.506.96-1.587 3.325-.401 5.866-.934 7.629-1.595 1.764-.66 2.996-1.553 3.697-2.676.702-1.122 1.052-3.088 1.052-5.899v-56.62c0-2.764-.33-4.719-.991-5.866-.66-1.142-1.873-2.056-3.637-2.736-1.762-.682-4.344-1.224-7.75-1.625-.64 0-.96-.539-.96-1.618 0-1.079.32-1.618.96-1.618 10.093.431 20.428.647 31.006.647a726.02 726.02 0 0031.066-.647 134.574 134.574 0 004.024 18.226c0 .795-.721 1.19-2.157 1.19-.701 0-1.132-.277-1.295-.833-2.959-9.367-9.262-14.053-18.923-14.053h-12.102c-4.631 0-6.944 2.4-6.944 7.193v26.678h15.143c4.024 0 6.755-.924 8.184-2.778 1.429-1.854 2.427-5.134 2.993-9.846 0-.644.539-.968 1.618-.968 1.079 0 1.619.324 1.619.968 0 2.015-.109 4.55-.324 7.611-.216 2.939-.325 5.336-.325 7.187 0 1.894.109 4.311.325 7.25.215 3.142.324 5.717.324 7.729 0 .648-.54.968-1.619.968s-1.618-.32-1.618-.964c-.606-4.908-1.666-8.346-3.175-10.318-1.511-1.969-4.18-2.956-8.002-2.956h-15.143v29.578c0 4.733 2.313 7.097 6.951 7.097h13.072c4.76 0 9.473-1.551 14.152-4.656 4.678-3.104 8.116-6.981 10.313-11.632.163-.358.499-.54 1.026-.54a2.63 2.63 0 011.504.452c.437.299.66.671.66 1.109m104.489-62.044c0 .981-.32 1.51-.961 1.588-5.009.563-8.443 1.486-10.305 2.767-1.863 1.284-2.834 3.752-2.912 7.402l-1.295 70.822c0 .802-.501 1.203-1.499 1.203-.499 0-1.166-.32-1.999-.961l-61.868-70.001-.864 55.622c-.04.323-.061.624-.061.903 0 3.048.962 5.204 2.886 6.465 1.922 1.261 5.388 2.195 10.397 2.795.64.081.96.61.96 1.587 0 1.1-.32 1.649-.96 1.649-2.084 0-4.949-.108-8.593-.324-3.415-.216-6.061-.323-7.939-.323-2.035 0-4.756.107-8.161.323-3.286.216-5.832.324-7.631.324-.64 0-.961-.549-.961-1.649 0-.977.361-1.506 1.083-1.587 4.964-.6 8.369-1.534 10.212-2.798 1.841-1.26 2.823-3.719 2.944-7.372l2.157-56.62v-.539c0-3.25-.943-5.515-2.824-6.799-1.886-1.282-5.39-2.245-10.514-2.889-.562 0-.844-.539-.844-1.618 0-1.079.322-1.618.965-1.618 1.399 0 3.361.108 5.885.323 2.245.216 3.928.324 5.051.324 1.398 0 3.091-.108 5.075-.324 2.023-.215 3.763-.323 5.223-.323l57.782 64.639V53.57c0-3.411-.974-5.808-2.915-7.193-1.942-1.383-5.539-2.377-10.783-2.98-.641-.078-.962-.607-.962-1.588 0-1.098.321-1.648.962-1.648 2.163 0 5.045.108 8.652.323 3.364.216 5.983.324 7.864.324 2.036 0 4.756-.108 8.161-.324 3.284-.215 5.827-.323 7.631-.323.641 0 .961.55.961 1.648m56.813 57.749c0 7.959-2.373 14.286-7.114 18.985-4.742 4.699-11.149 7.048-19.226 7.048-3.58 0-7.859-.633-12.84-1.894-4.541-1.18-8.259-1.773-11.15-1.773a293.018 293.018 0 00-1.447-20.397c0-.641.617-.961 1.851-.961.862 0 1.394.32 1.6.954 2.158 7.409 4.912 12.624 8.269 15.651 3.357 3.027 8.087 4.538 14.188 4.538 4.858 0 8.623-1.396 11.293-4.194 2.669-2.795 4.004-6.708 4.004-11.744 0-3.233-1.166-6.236-3.492-9.014-2.326-2.777-7.28-6.36-14.862-10.756-8.71-4.996-14.406-9.236-17.094-12.715-2.689-3.479-4.031-7.339-4.031-11.579 0-6.516 2.421-12.023 7.262-16.523 4.839-4.497 10.977-6.749 18.414-6.749 2.81 0 6.044.381 9.702 1.139 3.414.681 6.367 1.018 8.86 1.018.48 7.066 1.123 13.288 1.93 18.668 0 .644-.527.964-1.574.964-1.134 0-1.757-.32-1.878-.961-1.325-6.007-3.331-10.335-6.017-12.977-2.69-2.643-6.412-3.968-11.165-3.968-4.513 0-8.1 1.318-10.759 3.954-2.66 2.636-3.988 6.192-3.988 10.662 0 2.839 1.116 5.545 3.348 8.12 2.231 2.576 7.064 6.021 14.504 10.332 8.804 5.12 14.576 9.398 17.308 12.836 2.734 3.439 4.104 7.217 4.104 11.336M88.223 193.19a337.091 337.091 0 00-2.353 11.437c-1.278 0-3.598.3-6.961.894-4.305.768-7.487 1.155-9.548 1.155-5.111 0-9.594-1.007-13.449-3.026-3.856-2.02-6.86-4.904-9.01-8.66-2.152-3.754-3.228-7.928-3.228-12.527 0-4.529 1.136-8.702 3.407-12.525 2.272-3.822 5.402-6.799 9.389-8.929 3.984-2.131 8.474-3.196 13.468-3.196 2.103 0 4.925.219 8.462.658 2.754.354 4.758.529 6.012.529.29 3.138.805 6.954 1.546 11.438 0 .356-.351.535-1.048.535-.437 0-.698-.179-.786-.535-.806-3.041-2.542-5.546-5.205-7.515-2.665-1.968-5.732-2.953-9.2-2.953-5.262 0-9.678 2.175-13.248 6.523-3.57 4.348-5.354 9.675-5.354 15.97 0 6.122 1.768 11.328 5.304 15.618 3.536 4.292 7.857 6.438 12.962 6.438 7.991 0 13.654-3.774 16.989-11.329.157-.357.46-.535.909-.535.627 0 .942.178.942.535m97.513-10.727c0-6.612-1.597-12.012-4.791-16.206-3.196-4.19-7.392-6.287-12.592-6.287-5.224 0-9.42 2.097-12.592 6.287-3.172 4.194-4.758 9.594-4.758 16.206 0 6.568 1.575 11.887 4.725 15.955 3.148 4.07 7.356 6.101 12.625 6.101 5.245 0 9.453-2.031 12.625-6.101 3.172-4.068 4.758-9.387 4.758-15.955zm7.443 0c0 7.107-2.29 12.921-6.871 17.438-4.581 4.517-10.566 6.775-17.955 6.775-7.389 0-13.369-2.258-17.938-6.775-4.571-4.517-6.854-10.331-6.854-17.438 0-7.128 2.3-13.017 6.905-17.669 4.602-4.652 10.566-6.981 17.887-6.981 7.343 0 13.316 2.329 17.921 6.981 4.603 4.652 6.905 10.541 6.905 17.669zm94.82 10.818a105.234 105.234 0 00-2.481 12.425c-8.594-.286-14.708-.431-18.342-.431-3.59 0-9.624.145-18.105.431-.361 0-.539-.314-.539-.934 0-.552.178-.855.539-.899 2.714-.314 4.559-.823 5.535-1.52.976-.698 1.465-2.098 1.465-4.19v-31.802c0-1.573-.197-2.686-.59-3.326-.393-.641-1.083-1.15-2.07-1.525-.987-.37-2.434-.667-4.34-.892-.361 0-.539-.307-.539-.917 0-.61.178-.916.539-.916 1.504 0 3.299.069 5.385.215 2.001.144 3.69.215 5.066.215 1.375 0 3.054-.071 5.033-.215a77.008 77.008 0 015.351-.215c.358 0 .538.306.538.916 0 .61-.18.917-.538.917-1.884.225-3.32.522-4.307.892-.988.372-1.673.873-2.054 1.504-.38.63-.571 1.746-.571 3.344v32.778c0 2.657 1.299 3.982 3.899 3.982h6.655c2.756 0 5.087-.736 6.992-2.208 1.904-1.471 3.785-4.214 5.645-8.239.088-.174.301-.269.634-.269.288 0 .56.095.816.272.257.179.384.381.384.607m92.077 0c-1.052 3.961-1.874 8.104-2.481 12.425-8.593-.286-14.707-.431-18.341-.431-3.59 0-9.624.145-18.105.431-.36 0-.539-.314-.539-.934 0-.552.179-.855.539-.899 2.714-.314 4.559-.823 5.535-1.52.976-.698 1.465-2.098 1.465-4.19v-31.802c0-1.573-.197-2.686-.59-3.326-.394-.641-1.082-1.15-2.07-1.525-.988-.37-2.433-.667-4.34-.892-.36 0-.539-.307-.539-.917 0-.61.179-.916.539-.916 1.503 0 3.298.069 5.385.215 2.001.144 3.69.215 5.067.215 1.375 0 3.054-.071 5.032-.215a77.008 77.008 0 015.351-.215c.358 0 .538.306.538.916 0 .61-.18.917-.538.917-1.884.225-3.32.522-4.308.892-.988.372-1.672.873-2.052 1.504-.381.63-.572 1.746-.572 3.344v32.778c0 2.657 1.3 3.982 3.898 3.982h6.656c2.756 0 5.085-.736 6.993-2.208 1.901-1.471 3.782-4.214 5.643-8.239.088-.174.303-.269.633-.269.29 0 .56.095.817.272.256.179.384.381.384.607m93.803 1.227c-1.82 3.913-3.303 7.648-4.445 11.198-8.469-.286-14.499-.431-18.092-.431-3.55 0-9.563.145-18.048.431-.36 0-.539-.314-.539-.934 0-.552.179-.855.539-.899 1.862-.227 3.284-.523 4.272-.894.987-.37 1.678-.876 2.069-1.504.395-.633.59-1.735.59-3.312v-31.802c0-1.554-.185-2.651-.557-3.292-.371-.641-1.047-1.153-2.036-1.538-.987-.384-2.433-.688-4.338-.913-.36 0-.539-.307-.539-.917 0-.61.179-.916.539-.916 5.654.286 11.441.43 17.368.43 5.969 0 11.77-.144 17.403-.43a77.628 77.628 0 002.255 10.327c0 .448-.385.675-1.147.675-.37 0-.599-.159-.686-.472-1.663-5.296-5.212-7.942-10.646-7.942h-6.802c-2.606 0-3.911 1.345-3.911 4.032v14.953h8.478c2.272 0 3.809-.517 4.615-1.545.805-1.027 1.368-2.852 1.686-5.471 0-.356.302-.535.917-.535.609 0 .916.179.916.538 0 1.123-.075 2.539-.216 4.244-.146 1.643-.215 2.981-.215 4.012 0 1.06.069 2.407.215 4.045.141 1.753.216 3.189.216 4.312 0 .36-.307.539-.916.539-.615 0-.917-.179-.917-.542-.341-2.751-.938-4.675-1.787-5.782-.854-1.105-2.357-1.658-4.514-1.658h-8.478v16.614c0 2.661 1.301 3.989 3.904 3.989h7.335c2.67 0 5.316-.873 7.941-2.626 2.623-1.753 4.555-3.938 5.788-6.56.091-.203.279-.306.569-.306.318 0 .598.084.844.252.245.172.37.38.37.63m105.625-9.658c0 .557-.177.858-.528.901-2.684.317-4.504.826-5.468 1.52-.965.701-1.446 2.097-1.446 4.193v3.992c0 3.471.246 5.858.742 7.166-2.99 1.193-6.22 2.168-9.685 2.922-3.465.755-6.526 1.132-9.179 1.132-5.127 0-9.627-1.007-13.496-3.026-3.87-2.02-6.887-4.904-9.044-8.66-2.161-3.754-3.24-7.928-3.24-12.527 0-4.573 1.17-8.77 3.506-12.592 2.336-3.823 5.565-6.789 9.677-8.896 4.113-2.107 8.775-3.162 13.99-3.162 2.022 0 4.743.368 8.158 1.096 3.012.634 5.318.953 6.913.953.293 3.139.809 6.955 1.551 11.438 0 .357-.365.536-1.089.536-.48 0-.763-.179-.854-.54-1.974-7.549-7.23-11.326-15.759-11.326-5.271 0-9.701 2.175-13.28 6.523-3.581 4.348-5.37 9.675-5.37 15.97 0 6.122 1.77 11.328 5.313 15.618 3.542 4.292 7.867 6.438 12.98 6.438 7.507 0 11.263-1.87 11.263-5.612v-8.926c0-1.237-.597-2.124-1.79-2.649-1.191-.533-4.045-1.021-8.566-1.474-.36 0-.539-.333-.539-1.003 0-.625.179-.938.539-.938 1.507 0 3.732.071 6.671.215 2.832.146 4.932.217 6.304.217 1.347 0 3.135-.071 5.359-.217 2.381-.144 4.322-.215 5.828-.215.362 0 .539.313.539.933m94.35 9.658c-1.819 3.913-3.3 7.648-4.445 11.198-8.468-.286-14.498-.431-18.091-.431-3.55 0-9.564.145-18.052.431-.356 0-.539-.314-.539-.934 0-.552.183-.855.539-.899 1.861-.227 3.287-.523 4.275-.894.987-.37 1.678-.876 2.069-1.504.391-.633.591-1.735.591-3.312v-31.802c0-1.554-.186-2.651-.557-3.292-.37-.641-1.048-1.153-2.036-1.538-.987-.384-2.433-.688-4.342-.913-.356 0-.539-.307-.539-.917 0-.61.183-.916.539-.916 5.657.286 11.444.43 17.371.43 5.969 0 11.77-.144 17.404-.43a77.31 77.31 0 002.254 10.327c0 .448-.381.675-1.146.675-.37 0-.6-.159-.688-.472-1.661-5.296-5.211-7.942-10.644-7.942h-6.806c-2.602 0-3.908 1.345-3.908 4.032v14.953h8.478c2.272 0 3.809-.517 4.615-1.545.806-1.027 1.366-2.852 1.685-5.471 0-.356.307-.535.917-.535.611 0 .917.179.917.538 0 1.123-.071 2.539-.215 4.244-.145 1.643-.215 2.981-.215 4.012 0 1.06.07 2.407.215 4.045.144 1.753.215 3.189.215 4.312 0 .36-.306.539-.917.539-.61 0-.917-.179-.917-.542-.339-2.751-.936-4.675-1.79-5.782-.849-1.105-2.352-1.658-4.51-1.658h-8.478v16.614c0 2.661 1.303 3.989 3.904 3.989h7.335c2.669 0 5.316-.873 7.942-2.626 2.626-1.753 4.554-3.938 5.787-6.56.089-.203.28-.306.574-.306.31 0 .593.084.839.252.246.172.37.38.37.63M44.136 140.918h632.396v-2.495H44.136z"/></g></svg>